<svg width="304" height="304" viewBox="0 0 304 304" fill="none" xmlns="http://www.w3.org/2000/svg">
<circle cx="152" cy="152" r="151.5" stroke="black"/>
<circle cx="152" cy="152" r="135.5" stroke="black" stroke-width="3"/>
<circle cx="152" cy="152" r="85.5" stroke="black" stroke-width="3"/>
<circle cx="152" cy="152" r="79.5" stroke="black"/>
<path d="M154.903 253.169C155.09 253.156 155.202 253.414 155.24 253.944L155.279 254.505C155.29 254.661 155.357 254.719 155.479 254.679C157.126 253.593 158.744 252.994 160.334 252.883C162.049 252.763 163.637 253.074 165.099 253.818C166.531 254.594 167.702 255.656 168.611 257.002C169.491 258.381 169.989 259.913 170.107 261.596C170.212 263.093 170.032 264.546 169.567 265.957C169.071 267.37 168.376 268.641 167.484 269.768C166.563 270.929 165.5 271.849 164.294 272.529C163.091 273.24 161.819 273.642 160.479 273.736C159.138 273.83 157.951 273.647 156.916 273.187C156.698 273.202 156.608 273.49 156.648 274.051L157.001 279.101C157.075 280.161 157.239 281.152 157.491 282.074C157.651 282.564 158.463 282.758 159.928 282.655L160.349 282.626C160.536 282.613 160.642 282.778 160.666 283.121C160.701 283.62 160.625 283.875 160.438 283.889C158.703 284.167 157.348 284.497 156.372 284.878C155.365 285.262 154.654 285.625 154.24 285.967L154.062 286.121L153.969 286.127C153.844 286.136 153.713 286.051 153.575 285.873C153.44 285.726 153.351 285.575 153.309 285.422C153.579 284.369 153.656 283.001 153.538 281.317L152.065 260.275C151.962 258.81 151.786 257.632 151.535 256.741C151.42 256.436 151.141 256.252 150.698 256.189C150.226 256.159 149.738 256.131 149.235 256.103L148.811 256.086C148.715 256.061 148.655 255.878 148.631 255.535C148.599 255.067 148.676 254.827 148.863 254.814C149.887 254.679 150.935 254.434 152.007 254.077C153.08 253.751 153.908 253.489 154.489 253.292L154.903 253.169ZM158.718 255.298C157.658 255.372 156.848 255.664 156.288 256.173C155.731 256.713 155.481 257.389 155.538 258.199L156.317 269.328C156.363 269.983 156.764 270.566 157.52 271.077C158.247 271.621 159.39 271.839 160.949 271.729C162.134 271.646 163.136 271.2 163.957 270.391C164.777 269.582 165.377 268.537 165.758 267.258C166.14 266.009 166.281 264.668 166.181 263.234C166.076 261.737 165.714 260.369 165.095 259.128C164.444 257.889 163.577 256.916 162.494 256.209C161.41 255.501 160.152 255.198 158.718 255.298Z" fill="black"/>
<path d="M140.991 252.765C141.094 252.909 141.112 253.181 141.046 253.582C140.984 253.952 140.892 254.126 140.769 254.106C140.522 254.065 140.175 254.055 139.728 254.076C139.281 254.097 138.86 254.154 138.465 254.247C138.069 254.34 137.846 254.446 137.795 254.564C137.6 254.975 137.441 255.456 137.318 256.006C137.165 256.55 137.037 257.131 136.935 257.748L135.489 266.488C135.295 267.66 135.373 268.528 135.723 269.093C135.965 269.544 136.294 269.852 136.71 270.016C137.121 270.211 137.481 270.334 137.79 270.385C138.093 270.467 138.239 270.538 138.229 270.6C138.107 271.34 137.95 271.71 137.76 271.71C136.085 271.687 134.804 271.68 133.915 271.692C133.021 271.734 132.222 271.776 131.518 271.818L130.94 271.865C130.812 271.875 130.755 271.739 130.77 271.456C130.785 271.174 130.819 270.973 130.87 270.855C131.034 270.249 131.192 269.673 131.346 269.128C131.468 268.579 131.571 268.057 131.652 267.564L133.229 258.037C133.377 257.143 133.476 256.352 133.527 255.663C133.577 254.975 133.582 254.374 133.54 253.86C133.499 253.726 133.306 253.552 132.961 253.337C132.617 253.121 132.237 252.931 131.82 252.768C131.404 252.604 131.103 252.506 130.918 252.476C130.826 252.46 130.795 252.265 130.825 251.89C130.856 251.515 130.914 251.256 131.002 251.112L135.912 252.162L140.991 252.765ZM132.233 277.257C132.85 277.359 133.351 277.68 133.737 278.219C134.123 278.758 134.265 279.336 134.163 279.952C134.056 280.6 133.735 281.101 133.202 281.456C132.663 281.842 132.085 281.984 131.468 281.882C130.821 281.775 130.319 281.454 129.964 280.92C129.573 280.412 129.431 279.834 129.539 279.187C129.641 278.57 129.961 278.069 130.5 277.683C131.008 277.292 131.586 277.15 132.233 277.257Z" fill="black"/>
<path d="M127.339 240.003C127.406 240.167 127.366 240.421 127.221 240.767C127.064 241.141 126.927 241.304 126.812 241.256C126.582 241.159 126.246 241.069 125.807 240.986C125.367 240.903 124.944 240.861 124.538 240.859C124.132 240.858 123.89 240.909 123.813 241.012C123.528 241.367 123.262 241.798 123.015 242.304C122.74 242.799 122.481 243.334 122.239 243.91L114.737 261.757C114.277 262.851 114.151 263.714 114.361 264.344C114.504 264.811 114.752 265.187 115.107 265.472C115.433 265.744 115.755 265.947 116.072 266.081C116.348 266.231 116.474 266.334 116.449 266.392C116.159 267.083 115.921 267.407 115.736 267.363C112.489 266.541 110.378 266.077 109.405 265.973L109.066 265.932C108.922 265.872 108.931 265.689 109.093 265.384C109.243 265.108 109.375 264.876 109.488 264.686L109.641 264.445C109.268 264.526 108.774 264.572 108.158 264.585C107.543 264.597 106.911 264.569 106.262 264.499C105.584 264.418 105.029 264.286 104.597 264.105C102.638 263.281 101.198 262.151 100.277 260.713C99.3154 259.291 98.8021 257.77 98.7375 256.15C98.6319 254.546 98.8698 253.053 99.451 251.67C100.032 250.287 100.849 249.071 101.9 248.022C102.939 247.001 104.111 246.188 105.416 245.584C106.721 244.98 108.071 244.632 109.465 244.541C110.819 244.465 112.1 244.682 113.31 245.191C114.203 245.566 114.85 245.923 115.251 246.261C115.663 246.57 116.111 246.995 116.595 247.538C116.759 247.471 116.895 247.308 117.004 247.049L118.566 243.332C118.917 242.497 119.197 241.75 119.406 241.092C119.615 240.434 119.759 239.85 119.837 239.341C119.828 239.202 119.681 238.987 119.396 238.698C119.111 238.409 118.784 238.136 118.417 237.88C118.05 237.624 117.781 237.46 117.608 237.387C117.521 237.351 117.536 237.154 117.653 236.796C117.781 236.409 117.899 236.17 118.005 236.079L122.538 238.239L127.339 240.003ZM112.375 246.933C111.222 246.449 110.097 246.383 109 246.735C107.862 247.104 106.826 247.753 105.893 248.683C104.948 249.642 104.209 250.755 103.676 252.022C102.998 253.636 102.719 255.146 102.84 256.552C102.919 257.976 103.316 259.21 104.029 260.256C104.742 261.301 105.689 262.072 106.87 262.569C107.763 262.944 108.601 263.008 109.383 262.76C110.153 262.542 110.725 261.986 111.101 261.093L115.188 251.37C115.515 250.592 115.375 249.754 114.77 248.855C114.153 247.986 113.354 247.345 112.375 246.933Z" fill="black"/>
<path d="M90.9668 232.306C92.2232 233.235 92.9719 234.43 93.2131 235.891C93.4291 237.333 92.9704 238.82 91.8371 240.353L84.7581 249.926L86.9441 251.543C87.0697 251.636 86.9374 251.946 86.5473 252.474C86.4358 252.624 86.3582 252.703 86.3145 252.71C85.3006 252.504 84.0167 252.585 82.4629 252.951C81.3833 253.202 80.5195 253.477 79.8715 253.775C79.1984 254.055 78.8247 254.245 78.7504 254.345C77.9966 253.788 77.6661 253.446 77.759 253.321L80.5182 249.589L77.5685 247.35L75.4579 245.789C75.2569 245.641 75.24 245.453 75.4072 245.227C75.7602 244.75 76.2389 244.365 76.8432 244.074L81.8559 247.78L88.6841 238.546C89.4273 237.541 89.7706 236.551 89.714 235.577C89.6322 234.584 89.1768 233.78 88.3476 233.167C87.5687 232.591 86.6133 232.254 85.4813 232.155C85.3688 232.15 85.3393 231.953 85.3929 231.565C85.428 231.203 85.4673 231.018 85.5111 231.011C86.1852 230.888 87.0604 230.913 88.1366 231.087C89.1943 231.286 90.1377 231.693 90.9668 232.306Z" fill="black"/>
<path d="M86.8834 215.043C87.3087 215.543 87.4679 216.044 87.361 216.545C87.2541 217.046 87.046 217.429 86.7366 217.692C86.2368 218.117 85.7142 218.275 85.1689 218.164C83.488 216.189 81.3508 215.751 78.7572 216.85C78.2989 217.034 77.749 217.256 77.1075 217.515C76.4659 217.774 75.9499 217.987 75.5595 218.155L67.4087 233.892C67.2244 234.254 67.0876 234.576 66.9985 234.857C66.8856 235.158 66.8202 235.419 66.8025 235.639C66.7705 236.036 66.8756 236.521 67.1176 237.094C67.3393 237.644 67.5615 238.05 67.7843 238.312C67.8653 238.407 67.7511 238.586 67.4417 238.85C67.1561 239.093 66.9252 239.207 66.749 239.193C66.226 238.53 65.7251 237.869 65.2461 237.21C64.7231 236.547 64.1781 235.882 63.611 235.216C62.963 234.454 62.3941 233.81 61.9046 233.283C61.3912 232.776 60.9302 232.306 60.5216 231.874C60.6715 231.665 60.8297 231.489 60.9963 231.347C61.3295 231.064 61.5366 230.97 61.6176 231.065C61.6986 231.16 61.8862 231.308 62.1804 231.509C62.4543 231.686 62.752 231.843 63.0735 231.98C63.3713 232.137 63.6118 232.179 63.7951 232.105L63.8665 232.044C64.2711 231.7 66.2935 227.784 69.9336 220.296L59.8067 224.235C59.189 224.474 58.7492 224.704 58.4874 224.927C58.1304 225.231 58.0068 225.664 58.1167 226.227C58.1824 226.787 58.4786 227.376 59.0051 227.995C59.0862 228.09 58.972 228.269 58.6626 228.532C58.377 228.775 58.1461 228.89 57.9699 228.876C57.7304 228.546 57.3712 228.052 56.8922 227.392C56.4133 226.733 55.9308 226.118 55.4447 225.547C54.9992 225.023 54.4894 224.472 53.9152 223.894C53.3411 223.315 52.9105 222.882 52.6234 222.593C52.7733 222.383 52.9315 222.207 53.0981 222.065C53.4313 221.782 53.6384 221.688 53.7194 221.783C53.9827 222.092 54.4442 222.418 55.1039 222.759C55.7637 223.1 56.4125 223.164 57.0506 222.949L79.7311 214.667C81.6724 213.959 83.2224 213.707 84.3809 213.911C85.5632 214.095 86.3973 214.472 86.8834 215.043Z" fill="black"/>
<path d="M69.7609 189.374C69.7005 189.54 69.5005 189.702 69.1607 189.861C68.7926 190.033 68.5821 190.062 68.5292 189.949C68.4234 189.723 68.2355 189.431 67.9654 189.074C67.6953 188.718 67.4101 188.402 67.1098 188.129C66.8095 187.855 66.5962 187.731 66.4697 187.755C66.0204 187.827 65.5343 187.968 65.0114 188.178C64.4754 188.359 63.9242 188.582 63.3579 188.847L58.0916 191.307C57.9501 191.373 57.85 191.454 57.7916 191.55C57.6915 191.632 57.6963 191.716 57.8058 191.802C59.4488 193.104 60.5083 194.265 60.9844 195.284C61.7515 196.927 62.0287 198.591 61.816 200.277C61.5901 201.934 60.9903 203.456 60.0167 204.842C59.0015 206.213 57.7295 207.256 56.2006 207.97C54.9548 208.552 53.6183 208.866 52.191 208.912C50.7638 208.957 49.3639 208.766 47.9912 208.338C46.6054 207.882 45.3582 207.206 44.2496 206.309C43.1128 205.426 42.2402 204.333 41.6318 203.031C41.0631 201.813 40.6719 200.755 40.4582 199.854C40.203 198.939 40.0093 198.339 39.8771 198.056C39.758 197.801 39.5559 197.516 39.2707 197.201C38.9723 196.858 38.8099 196.658 38.7834 196.601C38.7437 196.516 38.7069 196.326 38.6728 196.032C38.6387 195.737 38.6783 195.564 38.7915 195.511C38.9897 195.418 39.6938 195.227 40.9038 194.938C42.0855 194.662 43.3842 194.193 44.7999 193.532L61.533 185.715C62.1843 185.411 62.7656 185.105 63.2771 184.797C63.7886 184.489 64.2444 184.173 64.6445 183.848C64.7313 183.739 64.7662 183.481 64.749 183.075C64.7319 182.669 64.6732 182.248 64.573 181.812C64.4727 181.376 64.383 181.073 64.3036 180.903C64.2639 180.818 64.4074 180.682 64.7339 180.495C65.0604 180.308 65.3077 180.21 65.4757 180.2L67.3861 184.844L69.7609 189.374ZM58.209 194.77C57.9048 194.119 57.4232 193.568 56.7642 193.117C56.0636 192.651 55.2462 192.636 54.3118 193.072L44.4588 197.675C43.6943 198.032 43.2368 198.677 43.0861 199.61C42.9354 200.542 43.1576 201.646 43.7528 202.92C44.2686 204.024 45.0656 204.807 46.1437 205.269C47.2219 205.731 48.4123 205.917 49.7149 205.826C51.0043 205.706 52.2718 205.356 53.5176 204.774C56.0375 203.597 57.6577 202.081 58.3782 200.227C59.0986 198.373 59.0423 196.554 58.209 194.77Z" fill="black"/>
<path d="M52.0653 163.214C52.1037 163.461 51.8759 163.623 51.3819 163.7L49.0197 164.067C48.8653 164.091 48.7929 164.134 48.8025 164.196C51.312 165.893 52.7228 167.745 53.0351 169.752C53.2609 171.203 53.0242 172.426 52.325 173.42C51.5901 174.389 50.6031 175.159 49.3638 175.731C48.0889 176.278 46.7412 176.661 45.3208 176.882L39.4848 177.79C38.3114 177.973 37.5113 178.319 37.0845 178.828C36.762 179.194 36.5726 179.603 36.5164 180.055C36.4553 180.475 36.4512 180.855 36.5041 181.195C36.5212 181.509 36.4989 181.67 36.4372 181.68C35.6961 181.795 35.2957 181.763 35.236 181.582C34.7343 179.984 34.314 178.705 33.975 177.746C33.6003 176.761 33.3855 176.193 33.3306 176.044L32.9549 175.153C32.9048 175.035 33.0163 174.938 33.2894 174.864C33.5625 174.79 33.7632 174.759 33.8915 174.77C35.4025 174.725 36.5594 174.64 37.3623 174.515L43.6152 173.542C45.9928 173.172 47.6976 172.543 48.7297 171.655C49.7308 170.772 50.1064 169.528 49.8566 167.922C49.7605 167.304 49.497 166.729 49.0661 166.195C48.6303 165.63 48.152 165.199 47.6312 164.9C47.0747 164.576 46.6266 164.44 46.2869 164.493L37.6255 165.84C36.4521 166.023 35.652 166.369 35.2252 166.878C34.9027 167.244 34.7134 167.653 34.6571 168.105C34.5961 168.525 34.5765 168.908 34.5985 169.252C34.6156 169.566 34.6088 169.725 34.5779 169.73C33.8368 169.845 33.4364 169.813 33.3767 169.632C32.8751 168.034 32.4846 166.846 32.2053 166.067C31.9212 165.257 31.6789 164.615 31.4786 164.14L31.0956 163.203C31.0455 163.085 31.157 162.988 31.4301 162.914C31.7032 162.84 31.9039 162.809 32.0323 162.82C33.5433 162.775 34.6693 162.695 35.4104 162.579L44.6739 161.138C46.0635 160.922 47.22 160.631 48.1436 160.266C48.438 160.126 48.6003 159.847 48.6305 159.431C48.6298 159.02 48.6195 158.548 48.5995 158.013L48.5522 157.404C48.5686 157.306 48.7313 157.234 49.04 157.186C49.1327 157.171 49.2943 157.193 49.5248 157.252C49.7197 157.285 49.8244 157.348 49.8388 157.441C50.0447 158.358 50.373 159.35 50.8239 160.419C51.2439 161.492 51.6052 162.289 51.9078 162.812L52.0653 163.214Z" fill="black"/>
<path d="M52.2885 139.781C52.0852 141.487 51.4486 143.001 50.3787 144.321C49.3088 145.641 47.9773 146.647 46.3844 147.338C44.7641 147.995 43.023 148.213 41.1612 147.991C38.989 147.732 37.1597 147.105 35.6732 146.11C34.1868 145.114 33.1078 143.869 32.4363 142.373C31.7338 140.873 31.486 139.254 31.693 137.516C31.863 136.089 32.292 134.865 32.9799 133.846C33.6368 132.823 34.4193 132.066 35.3273 131.576C36.2627 131.121 37.1951 130.823 38.1246 130.682C39.0267 130.506 39.9122 130.47 40.781 130.574C41.4017 130.648 41.7785 130.787 41.9114 130.992C42.0134 131.192 42.0329 131.557 41.9701 132.084L40.573 143.814C40.5434 144.062 40.6062 144.195 40.7613 144.214C42.0646 144.369 43.3528 144.255 44.6258 143.872C45.8678 143.485 46.9377 142.825 47.8354 141.894C48.7331 140.962 49.2707 139.752 49.4481 138.262C49.6034 136.959 49.5466 135.851 49.2777 134.937C48.9815 133.989 48.7022 133.295 48.44 132.855L48.2461 132.501C48.2682 132.315 48.481 132.246 48.8844 132.294C49.1016 132.32 49.3698 132.446 49.689 132.673C50.4839 133.397 51.1662 134.407 51.7357 135.702C52.2743 136.994 52.4585 138.353 52.2885 139.781ZM38.618 143.581L39.6991 134.505C39.7176 134.349 39.5717 134.253 39.2614 134.216C38.5787 134.135 37.8118 134.232 36.9607 134.509C36.0822 134.75 35.2901 135.191 34.5845 135.831C33.8789 136.471 33.4614 137.333 33.332 138.42C33.2137 139.413 33.4534 140.307 34.0511 141.102C34.6177 141.893 35.3133 142.526 36.1378 143.002C36.9313 143.474 37.6383 143.748 38.2589 143.821C38.4761 143.847 38.5958 143.767 38.618 143.581Z" fill="black"/>
<path d="M68.2118 96.6568C68.115 96.8174 67.8391 96.7605 67.3842 96.4862L66.9024 96.1958C66.7686 96.1151 66.6828 96.1364 66.6451 96.2596C66.5873 98.2317 66.147 99.9002 65.3241 101.265C64.4367 102.737 63.2687 103.857 61.8201 104.626C60.3608 105.352 58.8192 105.7 57.1954 105.669C55.561 105.596 54.0212 105.124 52.576 104.253C51.2914 103.478 50.2055 102.495 49.3184 101.304C48.4474 100.085 47.807 98.7869 47.3972 97.4087C46.9768 95.9876 46.8351 94.5885 46.972 93.2114C47.0821 91.8182 47.4841 90.5462 48.1779 89.3955C48.8716 88.2447 49.7042 87.3782 50.6754 86.7961C50.7884 86.6088 50.604 86.3699 50.1223 86.0794L45.7867 83.4657C44.8768 82.9171 43.972 82.4811 43.0723 82.1576C42.5796 82.0065 41.954 82.5599 41.1957 83.8177L40.9779 84.179C40.8811 84.3396 40.6855 84.3311 40.3911 84.1537C39.9629 83.8955 39.7972 83.6861 39.894 83.5256C40.6637 81.9462 41.1729 80.6476 41.4216 79.6299C41.6864 78.5854 41.7979 77.7951 41.7562 77.2591L41.7326 77.0259L41.781 76.9456C41.8455 76.8385 41.9903 76.7799 42.2155 76.7697C42.4138 76.7433 42.588 76.757 42.7379 76.8109C43.4436 77.6378 44.519 78.4868 45.9642 79.3581L64.029 90.2489C65.2868 91.0072 66.3522 91.5401 67.2251 91.8474C67.5412 91.9284 67.8523 91.8058 68.1585 91.4796C68.454 91.1104 68.7576 90.7278 69.0693 90.3319L69.3272 89.9948C69.4024 89.9307 69.5872 89.9873 69.8816 90.1648C70.283 90.4068 70.4353 90.6081 70.3385 90.7687C69.8596 91.6841 69.4582 92.6828 69.1344 93.7647C68.7838 94.8305 68.5221 95.6579 68.3494 96.2471L68.2118 96.6568ZM64.2767 98.5537C64.8253 97.6438 65.0522 96.8136 64.9573 96.0631C64.8356 95.2964 64.4269 94.7034 63.7311 94.2839L54.1768 88.5238C53.6148 88.185 52.9074 88.1782 52.0546 88.5033C51.1911 88.7855 50.356 89.5957 49.5493 90.9338C48.9362 91.9508 48.7249 93.0276 48.9154 94.1641C49.106 95.3007 49.6155 96.3924 50.444 97.4393C51.2457 98.4699 52.2621 99.3564 53.4932 100.099C54.7778 100.873 56.1059 101.364 57.4774 101.57C58.8651 101.75 60.1597 101.6 61.3612 101.12C62.5627 100.64 63.5346 99.7848 64.2767 98.5537Z" fill="black"/>
<path d="M76.5404 85.5041C76.3636 85.5057 76.1303 85.3642 75.8405 85.0795C75.573 84.8167 75.483 84.6407 75.5706 84.5516C75.7458 84.3732 75.9533 84.0951 76.193 83.7173C76.4326 83.3395 76.6282 82.9621 76.7795 82.5851C76.9308 82.208 76.9728 81.9646 76.9055 81.8547C76.681 81.459 76.379 81.0528 75.9996 80.6364C75.6422 80.1976 75.2405 79.7593 74.7946 79.3213L68.4743 73.1131C67.6271 72.2809 66.8719 71.8457 66.2086 71.8075C65.6998 71.7457 65.2586 71.8381 64.8852 72.0845C64.4894 72.309 64.1821 72.5327 63.9631 72.7557C63.7218 72.9567 63.5789 73.0353 63.5343 72.9915C62.9992 72.466 62.7862 72.1254 62.8953 71.9697C63.8776 70.6129 64.6196 69.5677 65.1213 68.834C65.6007 68.0783 66.0255 67.4006 66.3958 66.8006L66.6896 66.3008C66.7549 66.1897 66.8989 66.2215 67.1214 66.3963C67.344 66.5711 67.4889 66.7135 67.5561 66.8234C67.9582 67.3059 68.338 67.7666 68.6955 68.2053C69.0749 68.6218 69.443 69.0052 69.7997 69.3556L76.6885 76.1222C77.335 76.7573 77.9254 77.2934 78.4597 77.7306C78.9939 78.1678 79.4832 78.5169 79.9275 78.7781C80.0605 78.8211 80.3141 78.7636 80.6883 78.6056C81.0626 78.4476 81.4364 78.2453 81.8099 77.9989C82.1834 77.7525 82.4358 77.5624 82.5672 77.4286C82.6329 77.3618 82.8104 77.4486 83.0999 77.689C83.3893 77.9295 83.5678 78.1268 83.6355 78.2809L79.9536 81.6948L76.5404 85.5041ZM61.5336 64.2586C61.0956 64.7045 60.5452 64.9304 59.8823 64.9364C59.2194 64.9423 58.665 64.7263 58.2192 64.2883C57.751 63.8284 57.5251 63.278 57.5414 62.637C57.5355 61.9741 57.7515 61.4198 58.1895 60.9739C58.6494 60.5057 59.1998 60.2798 59.8408 60.2962C60.4814 60.2683 61.0358 60.4844 61.5039 60.9442C61.9498 61.3822 62.1757 61.9326 62.1817 62.5955C62.2095 63.2361 61.9935 63.7905 61.5336 64.2586Z" fill="black"/>
<path d="M94.8309 81.6702C94.6586 81.6307 94.4728 81.4522 94.2734 81.1346C94.0575 80.7905 94.0025 80.5852 94.1083 80.5188C94.3201 80.3859 94.5863 80.1634 94.9071 79.8515C95.2278 79.5395 95.5055 79.2177 95.7401 78.886C95.9746 78.5543 96.072 78.3273 96.032 78.2048C95.9053 77.7677 95.7057 77.3027 95.4332 76.8096C95.1871 76.3 94.898 75.7804 94.5658 75.251L84.2753 58.8531C83.6441 57.8473 83.0103 57.2489 82.3739 57.0579C81.9099 56.9064 81.4594 56.894 81.0224 57.0206C80.6118 57.1307 80.261 57.2771 79.9698 57.4598C79.6885 57.5995 79.5312 57.6428 79.498 57.5899C79.0994 56.9546 78.9711 56.5739 79.1133 56.4478C81.6533 54.2635 83.2456 52.8031 83.8902 52.0665L84.1183 51.8127C84.2507 51.7296 84.395 51.842 84.5512 52.1498C84.6909 52.4311 84.8056 52.6727 84.8954 52.8746L85.0052 53.1377C85.1536 52.7863 85.3996 52.3553 85.7432 51.8445C86.0867 51.3338 86.4734 50.8329 86.9031 50.3418C87.3593 49.8342 87.7859 49.4558 88.183 49.2066C89.9829 48.0771 91.7359 47.5488 93.442 47.6219C95.1579 47.6519 96.6974 48.1062 98.0604 48.9848C99.4333 49.8204 100.518 50.8734 101.316 52.144C102.113 53.4145 102.639 54.7816 102.893 56.2453C103.131 57.6824 103.122 59.1085 102.866 60.5234C102.611 61.9383 102.119 63.2427 101.393 64.4365C100.676 65.5872 99.762 66.5114 98.6503 67.2091C97.8297 67.724 97.1661 68.0482 96.6596 68.1817C96.1696 68.3415 95.5637 68.4636 94.8417 68.5477C94.8023 68.72 94.8573 68.9253 95.0068 69.1635L97.1496 72.5781C97.6313 73.3457 98.0814 74.0041 98.4997 74.5532C98.9181 75.1023 99.3131 75.5554 99.6848 75.9125C99.8042 75.9851 100.064 75.988 100.465 75.921C100.866 75.854 101.276 75.7439 101.697 75.5908C102.117 75.4376 102.407 75.3112 102.565 75.2116C102.645 75.1617 102.797 75.2873 103.023 75.5884C103.266 75.9158 103.394 76.1491 103.407 76.2882L99.0341 78.7558L94.8309 81.6702ZM97.7626 65.4419C98.8214 64.7774 99.522 63.895 99.8645 62.7946C100.217 61.6512 100.281 60.4304 100.057 59.1323C99.8156 57.8078 99.3297 56.5631 98.5988 55.3985C97.6686 53.9162 96.5934 52.8201 95.3731 52.1101C94.1626 51.3571 92.9247 50.9718 91.6593 50.9542C90.3939 50.9367 89.2186 51.2684 88.1333 51.9494C87.3128 52.4644 86.779 53.113 86.532 53.8952C86.2684 54.6509 86.394 55.439 86.909 56.2596L92.5151 65.1931C92.9636 65.9078 93.7295 66.2757 94.8127 66.2969C95.8793 66.2916 96.8626 66.0066 97.7626 65.4419Z" fill="black"/>
<path d="M122.038 56.334C120.556 56.8279 119.148 56.7537 117.814 56.1112C116.509 55.4588 115.556 54.2284 114.953 52.4199L111.189 41.1242L108.61 41.9836C108.462 42.033 108.284 41.7464 108.077 41.1238C108.017 40.946 107.997 40.8372 108.017 40.7977C108.768 40.0863 109.44 38.9895 110.034 37.5072C110.449 36.4795 110.721 35.6149 110.849 34.9132C111.007 34.2017 111.067 33.7867 111.027 33.6681C111.917 33.3717 112.386 33.2977 112.435 33.4459L113.902 37.8486L117.43 36.7224L119.921 35.8926C120.158 35.8136 120.321 35.9075 120.41 36.1743C120.598 36.7376 120.637 37.3503 120.528 38.0124L114.614 39.9832L118.244 50.8786C118.639 52.0645 119.252 52.9145 120.082 53.4284C120.942 53.9325 121.861 54.0216 122.839 53.6956C123.758 53.3893 124.583 52.8014 125.315 51.9319C125.384 51.843 125.562 51.9319 125.848 52.1988C126.125 52.436 126.253 52.5743 126.234 52.6139C125.947 53.2364 125.423 53.938 124.662 54.7186C123.891 55.4695 123.017 56.008 122.038 56.334Z" fill="black"/>
<path d="M138.51 62.9164C137.857 62.977 137.356 62.8196 137.007 62.444C136.658 62.0683 136.465 61.6783 136.427 61.2738C136.367 60.6203 136.538 60.1023 136.942 59.7195C139.525 59.4797 141.112 57.9828 141.704 55.2288C141.816 54.7476 141.951 54.1702 142.108 53.4965C142.265 52.8228 142.387 52.278 142.474 51.8619L134.282 36.1457C134.092 35.7868 133.908 35.4901 133.729 35.2556C133.547 34.99 133.372 34.7866 133.202 34.6455C132.896 34.3914 132.438 34.1985 131.83 34.0667C131.252 33.932 130.792 33.8806 130.45 33.9124C130.326 33.9239 130.245 33.7274 130.207 33.3229C130.172 32.9495 130.212 32.6948 130.324 32.5588C131.167 32.5119 131.996 32.482 132.811 32.4691C133.654 32.4222 134.511 32.3583 135.383 32.2774C136.378 32.185 137.233 32.0899 137.945 31.9924C138.655 31.8637 139.304 31.7563 139.893 31.6703C139.978 31.9135 140.031 32.144 140.051 32.3618C140.091 32.7974 140.049 33.021 139.925 33.0325C139.801 33.0441 139.571 33.1124 139.238 33.2376C138.935 33.3598 138.636 33.5132 138.339 33.6977C138.039 33.851 137.867 34.0239 137.822 34.2164L137.831 34.3097C137.88 34.8387 139.922 38.7448 143.956 46.028L146.554 35.4769C146.714 34.8344 146.779 34.342 146.747 33.9997C146.703 33.5329 146.42 33.1827 145.896 32.9489C145.4 32.681 144.748 32.5847 143.939 32.6598C143.814 32.6714 143.733 32.4749 143.696 32.0704C143.661 31.697 143.7 31.4423 143.813 31.3063C144.221 31.2998 144.832 31.2901 145.647 31.2773C146.461 31.2644 147.242 31.2232 147.989 31.1539C148.673 31.0903 149.417 30.9899 150.221 30.8525C151.024 30.7152 151.626 30.6121 152.028 30.5435C152.113 30.7866 152.166 31.0171 152.186 31.2349C152.227 31.6705 152.185 31.8941 152.06 31.9057C151.656 31.9432 151.124 32.1338 150.466 32.4774C149.807 32.8211 149.382 33.3156 149.191 33.961L142.93 57.2805C142.393 59.2761 141.709 60.6892 140.875 61.5198C140.045 62.3815 139.257 62.847 138.51 62.9164Z" fill="black"/>
<path d="M169.358 63.662C169.256 63.5171 169.239 63.26 169.304 62.8907C169.375 62.4907 169.472 62.3016 169.595 62.3235C169.841 62.3671 170.188 62.3809 170.635 62.365C171.082 62.349 171.504 62.2969 171.9 62.2085C172.297 62.1201 172.521 62.017 172.574 61.8994C172.774 61.4905 172.938 61.0118 173.067 60.4634C173.226 59.9204 173.361 59.3412 173.47 58.7258L174.484 53.0025C174.512 52.8487 174.503 52.7201 174.458 52.6169C174.449 52.4884 174.377 52.444 174.243 52.4837C172.233 53.0796 170.674 53.2793 169.567 53.0829C167.782 52.7666 166.261 52.0368 165.004 50.8935C163.777 49.7558 162.877 48.3901 162.302 46.7967C161.764 45.1779 161.642 43.5377 161.937 41.8761C162.177 40.5222 162.688 39.2482 163.471 38.054C164.254 36.8598 165.215 35.8242 166.355 34.9471C167.525 34.0754 168.795 33.4437 170.166 33.0519C171.542 32.6294 172.938 32.5435 174.353 32.7944C175.676 33.029 176.768 33.3177 177.627 33.6605C178.523 33.9779 179.125 34.1639 179.433 34.2185C179.71 34.2676 180.059 34.266 180.481 34.2139C180.933 34.1671 181.19 34.1492 181.252 34.1601C181.344 34.1765 181.521 34.2554 181.781 34.3968C182.042 34.5382 182.161 34.6704 182.139 34.7935C182.101 35.0089 181.853 35.6948 181.394 36.8512C180.94 37.9769 180.577 39.3089 180.305 40.8474L177.081 59.0327C176.956 59.7404 176.872 60.392 176.83 60.9876C176.788 61.5831 176.785 62.138 176.82 62.6521C176.86 62.7861 177.051 62.9628 177.393 63.1821C177.735 63.4014 178.113 63.5954 178.528 63.764C178.942 63.9327 179.241 64.0334 179.426 64.0661C179.518 64.0825 179.547 64.278 179.513 64.6527C179.478 65.0274 179.416 65.2862 179.327 65.4292L174.43 64.323L169.358 63.662ZM171.583 51.1077C172.291 51.2331 173.019 51.1558 173.766 50.8758C174.551 50.5705 175.033 49.9101 175.213 48.8947L177.111 38.1866C177.258 37.3558 176.993 36.6107 176.317 35.9512C175.64 35.2918 174.61 34.8393 173.225 34.5939C172.025 34.3812 170.926 34.5831 169.928 35.1996C168.93 35.8161 168.094 36.6835 167.42 37.8018C166.776 38.9254 166.334 40.1642 166.094 41.5181C165.609 44.2567 165.918 46.4537 167.021 48.1091C168.124 49.7645 169.645 50.764 171.583 51.1077Z" fill="black"/>
<path d="M200.935 64.2211C200.711 64.1106 200.71 63.8311 200.931 63.3826L201.988 61.2385C202.057 61.0983 202.063 61.0144 202.007 60.9868C199.176 62.0647 196.85 62.1545 195.028 61.2562C193.711 60.6067 192.846 59.71 192.435 58.5663C192.065 57.4084 192.002 56.1579 192.246 54.8149C192.532 53.4577 192.993 52.1344 193.629 50.8451L196.241 45.5478C196.766 44.4827 196.943 43.6292 196.771 42.9873C196.657 42.5128 196.431 42.1227 196.094 41.8171C195.785 41.5254 195.476 41.3035 195.168 41.1514C194.901 40.9852 194.782 40.8741 194.81 40.818C195.141 40.1454 195.398 39.8365 195.58 39.8913C197.176 40.3996 198.464 40.7907 199.444 41.0648C200.466 41.3247 201.053 41.4751 201.207 41.5162L202.152 41.7206C202.278 41.7478 202.293 41.8945 202.196 42.1606C202.1 42.4266 202.01 42.6088 201.927 42.7071C201.095 43.9695 200.5 44.9651 200.141 45.6938L197.342 51.3695C196.278 53.5277 195.812 55.2842 195.946 56.6391C196.093 57.966 196.895 58.9887 198.353 59.7074C198.913 59.9838 199.536 60.0991 200.22 60.0534C200.933 60.0215 201.561 59.8782 202.105 59.6236C202.69 59.3548 203.059 59.0663 203.211 58.758L207.087 50.8961C207.613 49.831 207.789 48.9775 207.618 48.3356C207.504 47.8611 207.278 47.471 206.941 47.1654C206.632 46.8736 206.33 46.6377 206.036 46.4577C205.769 46.2915 205.643 46.1943 205.657 46.1663C205.988 45.4936 206.245 45.1847 206.427 45.2396C208.023 45.7479 209.22 46.1116 210.018 46.3307C210.844 46.5637 211.509 46.7347 212.012 46.8437L212.999 47.0689C213.125 47.0961 213.139 47.2428 213.043 47.5088C212.947 47.7749 212.857 47.9571 212.774 48.0554C211.942 49.3178 211.361 50.2854 211.029 50.958L206.883 59.3665C206.261 60.6277 205.834 61.7412 205.602 62.7068C205.548 63.0285 205.682 63.3213 206.005 63.585C206.342 63.8207 206.734 64.0841 207.183 64.3751L207.709 64.6866C207.779 64.7561 207.745 64.931 207.607 65.2113C207.566 65.2953 207.455 65.4148 207.274 65.5695C207.135 65.71 207.023 65.7596 206.939 65.7181C206.071 65.3596 205.07 65.0577 203.936 64.8124C202.817 64.5391 201.956 64.3762 201.355 64.3236L200.935 64.2211Z" fill="black"/>
<path d="M219.982 77.8748C218.702 76.7274 217.83 75.3364 217.364 73.702C216.899 72.0676 216.842 70.4 217.192 68.699C217.586 66.9957 218.409 65.4461 219.66 64.0501C221.121 62.4215 222.685 61.2851 224.354 60.641C226.023 59.9969 227.663 59.8301 229.273 60.1408C230.904 60.4281 232.371 61.156 233.674 62.3243C234.744 63.284 235.499 64.3383 235.938 65.4873C236.397 66.613 236.567 67.6882 236.445 68.7128C236.28 69.7397 235.988 70.674 235.569 71.5156C235.194 72.3549 234.715 73.1002 234.131 73.7516C233.713 74.217 233.383 74.4452 233.139 74.4363C232.916 74.4042 232.606 74.2108 232.211 73.8562L223.416 65.97C223.23 65.8031 223.085 65.7778 222.981 65.8942C222.104 66.8713 221.457 67.9909 221.039 69.253C220.642 70.4918 220.566 71.7462 220.813 73.0163C221.059 74.2865 221.74 75.4222 222.857 76.4236C223.834 77.2999 224.774 77.8905 225.675 78.1954C226.621 78.498 227.35 78.6686 227.861 78.7071L228.262 78.7517C228.401 78.8769 228.336 79.0907 228.064 79.3931C227.918 79.556 227.661 79.7028 227.292 79.8336C226.242 80.0678 225.024 80.0456 223.637 79.767C222.27 79.4653 221.052 78.8345 219.982 77.8748ZM224.731 64.5043L231.536 70.6066C231.652 70.711 231.815 70.6468 232.023 70.4141C232.482 69.9023 232.844 69.2187 233.107 68.3634C233.414 67.5058 233.509 66.6044 233.391 65.6592C233.273 64.714 232.807 63.8763 231.993 63.1461C231.248 62.4785 230.379 62.1607 229.385 62.1927C228.412 62.2015 227.493 62.4064 226.63 62.8075C225.788 63.1853 225.158 63.6069 224.74 64.0722C224.594 64.2351 224.591 64.3791 224.731 64.5043Z" fill="black"/>
<path d="M246.114 115.694C246.038 115.523 246.243 115.33 246.729 115.115L247.243 114.888C247.386 114.825 247.418 114.742 247.339 114.641C245.759 113.46 244.647 112.14 244.003 110.682C243.309 109.11 243.063 107.51 243.267 105.883C243.512 104.272 244.114 102.811 245.072 101.499C246.071 100.204 247.343 99.2154 248.887 98.5337C250.259 97.9278 251.687 97.6044 253.172 97.5636C254.67 97.5513 256.101 97.7737 257.464 98.2307C258.868 98.7036 260.095 99.3919 261.143 100.296C262.219 101.187 263.029 102.247 263.572 103.476C264.115 104.705 264.345 105.885 264.263 107.014C264.351 107.214 264.653 107.2 265.167 106.973L269.799 104.928C270.771 104.499 271.647 104.009 272.429 103.459C272.836 103.143 272.743 102.313 272.15 100.969L271.979 100.583C271.904 100.412 272.023 100.257 272.337 100.118C272.795 99.9158 273.061 99.9006 273.137 100.072C273.987 101.61 274.757 102.773 275.447 103.562C276.149 104.379 276.731 104.924 277.194 105.198L277.398 105.313L277.436 105.399C277.487 105.513 277.452 105.665 277.331 105.855C277.238 106.033 277.127 106.167 276.996 106.259C275.914 106.361 274.601 106.753 273.058 107.435L253.761 115.955C252.418 116.549 251.369 117.114 250.616 117.652C250.368 117.864 250.289 118.189 250.38 118.627C250.513 119.081 250.651 119.549 250.796 120.032L250.923 120.437C250.933 120.535 250.78 120.654 250.466 120.793C250.037 120.982 249.785 120.991 249.709 120.819C249.235 119.901 248.649 118.999 247.95 118.112C247.279 117.212 246.752 116.523 246.37 116.042L246.114 115.694ZM246.823 111.384C247.253 112.356 247.802 113.019 248.47 113.373C249.167 113.714 249.888 113.72 250.631 113.392L260.837 108.886C261.437 108.621 261.849 108.046 262.073 107.161C262.339 106.292 262.156 105.143 261.525 103.714C261.045 102.627 260.285 101.836 259.246 101.338C258.206 100.841 257.02 100.63 255.687 100.706C254.383 100.77 253.074 101.092 251.759 101.672C250.386 102.278 249.222 103.083 248.264 104.087C247.319 105.119 246.698 106.264 246.4 107.523C246.102 108.782 246.243 110.069 246.823 111.384Z" fill="black"/>
<path d="M250.451 128.921C250.552 128.775 250.802 128.666 251.201 128.592C251.57 128.524 251.766 128.552 251.788 128.675C251.834 128.921 251.942 129.25 252.113 129.663C252.285 130.077 252.481 130.454 252.703 130.794C252.924 131.135 253.099 131.309 253.228 131.317C253.681 131.361 254.186 131.347 254.745 131.276C255.31 131.236 255.899 131.159 256.514 131.046L265.227 129.444C266.395 129.229 267.186 128.861 267.598 128.34C267.941 127.959 268.119 127.545 268.132 127.098C268.176 126.645 268.17 126.265 268.113 125.958C268.087 125.645 268.105 125.483 268.167 125.471C268.904 125.336 269.305 125.357 269.37 125.536C269.916 127.12 270.344 128.328 270.656 129.16C270.999 129.987 271.309 130.724 271.587 131.372L271.827 131.9C271.881 132.017 271.772 132.116 271.501 132.198C271.23 132.28 271.03 132.316 270.902 132.308C270.276 132.36 269.68 132.406 269.116 132.446C268.557 132.517 268.032 132.598 267.54 132.688L258.043 134.435C257.152 134.599 256.374 134.774 255.709 134.96C255.044 135.146 254.477 135.345 254.008 135.559C253.896 135.643 253.797 135.883 253.712 136.28C253.626 136.677 253.576 137.1 253.563 137.547C253.55 137.994 253.561 138.31 253.595 138.494C253.612 138.587 253.438 138.682 253.075 138.78C252.712 138.879 252.448 138.912 252.283 138.879L251.606 133.903L250.451 128.921ZM276.462 128.855C276.349 128.24 276.481 127.66 276.857 127.114C277.233 126.568 277.729 126.239 278.344 126.126C278.989 126.007 279.569 126.138 280.084 126.52C280.63 126.896 280.96 127.392 281.073 128.007C281.191 128.652 281.06 129.232 280.678 129.747C280.332 130.288 279.837 130.617 279.192 130.736C278.577 130.849 277.997 130.717 277.451 130.341C276.911 129.995 276.581 129.5 276.462 128.855Z" fill="black"/>
<path d="M243.074 146.091C243.205 145.973 243.458 145.923 243.833 145.943C244.238 145.964 244.438 146.037 244.431 146.162C244.418 146.411 244.447 146.757 244.518 147.199C244.589 147.641 244.693 148.053 244.829 148.435C244.966 148.818 245.096 149.028 245.219 149.066C245.649 149.213 246.145 149.317 246.705 149.378C247.263 149.47 247.855 149.532 248.479 149.564L267.812 150.571C268.998 150.632 269.852 150.458 270.374 150.047C270.765 149.754 271.034 149.393 271.181 148.962C271.327 148.563 271.409 148.192 271.427 147.849C271.474 147.538 271.529 147.385 271.592 147.388C272.341 147.427 272.726 147.541 272.747 147.73C273.075 151.064 273.354 153.206 273.586 154.157L273.663 154.489C273.655 154.645 273.48 154.699 273.138 154.65C272.828 154.602 272.564 154.557 272.347 154.515L272.069 154.453C272.271 154.777 272.482 155.226 272.703 155.801C272.923 156.375 273.111 156.98 273.266 157.614C273.419 158.279 273.483 158.845 273.459 159.313C273.348 161.436 272.773 163.174 271.732 164.528C270.721 165.914 269.465 166.913 267.962 167.523C266.489 168.166 265.004 168.449 263.506 168.371C262.008 168.293 260.587 167.937 259.243 167.304C257.93 166.672 256.768 165.845 255.758 164.823C254.747 163.8 253.962 162.648 253.403 161.367C252.873 160.119 252.643 158.84 252.711 157.529C252.761 156.562 252.878 155.833 253.06 155.341C253.21 154.848 253.459 154.283 253.805 153.643C253.687 153.512 253.487 153.439 253.206 153.424L249.18 153.215C248.275 153.168 247.478 153.158 246.788 153.184C246.098 153.211 245.501 153.274 244.995 153.373C244.867 153.428 244.715 153.64 244.539 154.006C244.364 154.372 244.218 154.772 244.101 155.204C243.985 155.636 243.922 155.945 243.912 156.132C243.907 156.226 243.717 156.279 243.341 156.29C242.933 156.301 242.669 156.271 242.547 156.202L243.042 151.206L243.074 146.091ZM254.667 157.819C254.602 159.067 254.922 160.148 255.625 161.061C256.358 162.006 257.32 162.76 258.511 163.323C259.734 163.887 261.031 164.205 262.405 164.277C264.152 164.368 265.667 164.118 266.95 163.528C268.262 162.97 269.289 162.179 270.03 161.153C270.772 160.128 271.176 158.976 271.243 157.696C271.293 156.729 271.069 155.919 270.571 155.267C270.105 154.617 269.387 154.267 268.42 154.216L257.887 153.668C257.045 153.624 256.303 154.039 255.663 154.914C255.055 155.789 254.723 156.758 254.667 157.819Z" fill="black"/>
<path d="M248.165 182.918C248.613 181.421 249.483 180.312 250.776 179.589C252.059 178.897 253.614 178.824 255.44 179.371L266.847 182.785L267.626 180.18C267.671 180.03 268.008 180.05 268.636 180.238C268.816 180.291 268.916 180.338 268.937 180.377C269.088 181.4 269.599 182.581 270.471 183.918C271.073 184.849 271.624 185.568 272.124 186.077C272.616 186.615 272.921 186.902 273.041 186.938C272.772 187.836 272.563 188.263 272.413 188.218L267.967 186.888L266.861 190.422L266.108 192.937C266.036 193.176 265.866 193.255 265.596 193.175C265.027 193.005 264.503 192.685 264.024 192.215L265.812 186.242L254.81 182.95C253.612 182.591 252.564 182.604 251.667 182.988C250.76 183.401 250.159 184.102 249.863 185.09C249.585 186.018 249.592 187.031 249.883 188.13C249.916 188.237 249.741 188.332 249.358 188.413C249.005 188.503 248.818 188.528 248.797 188.489C248.452 187.897 248.179 187.065 247.978 185.994C247.807 184.931 247.869 183.906 248.165 182.918Z" fill="black"/>
<path d="M233.31 192.612C233.636 192.043 234.052 191.723 234.56 191.654C235.068 191.584 235.498 191.651 235.851 191.852C236.42 192.178 236.746 192.617 236.827 193.167C235.538 195.418 235.851 197.577 237.764 199.645C238.093 200.013 238.488 200.455 238.949 200.971C239.41 201.487 239.786 201.9 240.076 202.21L257.645 204.542C258.048 204.593 258.397 204.613 258.692 204.601C259.013 204.605 259.281 204.578 259.494 204.52C259.878 204.416 260.298 204.153 260.756 203.731C261.198 203.336 261.505 202.989 261.675 202.691C261.738 202.582 261.945 202.629 262.298 202.831C262.623 203.017 262.809 203.195 262.855 203.366C262.409 204.083 261.957 204.778 261.499 205.452C261.053 206.169 260.612 206.907 260.178 207.666C259.681 208.534 259.268 209.288 258.938 209.927C258.635 210.582 258.35 211.175 258.082 211.706C257.834 211.636 257.615 211.546 257.425 211.438C257.045 211.22 256.887 211.058 256.949 210.949C257.011 210.841 257.086 210.614 257.176 210.269C257.25 209.951 257.296 209.618 257.316 209.269C257.363 208.936 257.32 208.695 257.189 208.548L257.107 208.501C256.646 208.238 252.276 207.663 243.998 206.777L251.138 214.968C251.571 215.469 251.937 215.804 252.236 215.975C252.642 216.208 253.092 216.177 253.585 215.883C254.089 215.631 254.543 215.153 254.946 214.448C255.008 214.339 255.216 214.386 255.568 214.588C255.894 214.774 256.08 214.952 256.126 215.123C255.897 215.46 255.554 215.966 255.096 216.64C254.638 217.314 254.223 217.976 253.85 218.627C253.509 219.224 253.163 219.891 252.814 220.627C252.464 221.363 252.202 221.915 252.028 222.283C251.78 222.213 251.561 222.124 251.371 222.015C250.991 221.798 250.832 221.635 250.895 221.527C251.096 221.174 251.246 220.63 251.343 219.893C251.441 219.157 251.28 218.525 250.862 217.997L235.38 199.469C234.056 197.882 233.293 196.51 233.093 195.351C232.865 194.176 232.937 193.263 233.31 192.612Z" fill="black"/>
<path d="M214.966 217.425C215.143 217.425 215.364 217.558 215.628 217.824C215.915 218.112 216.014 218.3 215.925 218.388C215.748 218.564 215.537 218.84 215.293 219.215C215.049 219.59 214.85 219.965 214.694 220.341C214.538 220.716 214.493 220.959 214.56 221.07C214.779 221.468 215.077 221.877 215.451 222.298C215.804 222.741 216.201 223.184 216.641 223.627L220.741 227.747C220.851 227.858 220.962 227.925 221.072 227.947C221.182 228.013 221.26 227.98 221.304 227.848C221.972 225.861 222.705 224.471 223.502 223.677C224.787 222.399 226.259 221.574 227.917 221.202C229.553 220.853 231.188 220.901 232.822 221.347C234.456 221.837 235.868 222.68 237.059 223.876C238.028 224.851 238.777 226.002 239.304 227.329C239.831 228.656 240.126 230.038 240.189 231.475C240.229 232.933 240.016 234.336 239.548 235.683C239.103 237.051 238.371 238.243 237.352 239.257C236.399 240.205 235.536 240.932 234.761 241.438C233.986 241.989 233.488 242.374 233.267 242.594C233.067 242.793 232.868 243.08 232.668 243.455C232.446 243.852 232.313 244.073 232.268 244.117C232.202 244.183 232.036 244.282 231.771 244.414C231.505 244.546 231.328 244.567 231.24 244.479C231.086 244.324 230.667 243.726 229.985 242.686C229.325 241.668 228.443 240.605 227.341 239.497L214.314 226.405C213.807 225.896 213.322 225.453 212.859 225.076C212.396 224.699 211.944 224.378 211.503 224.111C211.37 224.067 211.116 224.121 210.74 224.275C210.364 224.429 209.988 224.627 209.611 224.869C209.235 225.111 208.981 225.298 208.848 225.431C208.781 225.497 208.605 225.408 208.318 225.164C208.031 224.92 207.855 224.721 207.789 224.566L211.51 221.195L214.966 217.425ZM223.96 226.462C223.45 226.969 223.095 227.609 222.894 228.382C222.693 229.199 222.956 229.973 223.684 230.704L231.355 238.413C231.95 239.011 232.711 239.223 233.64 239.049C234.569 238.874 235.531 238.291 236.528 237.299C237.392 236.44 237.859 235.424 237.928 234.253C237.997 233.082 237.768 231.899 237.24 230.705C236.691 229.532 235.931 228.459 234.961 227.484C233 225.513 231.024 224.502 229.036 224.453C227.047 224.404 225.355 225.074 223.96 226.462Z" fill="black"/>
<path d="M196.356 242.942C196.576 242.822 196.805 242.981 197.045 243.42L198.192 245.517C198.267 245.655 198.332 245.708 198.386 245.678C199.132 242.742 200.396 240.787 202.178 239.812C203.467 239.108 204.698 238.916 205.87 239.237C207.03 239.6 208.089 240.267 209.048 241.239C209.994 242.253 210.812 243.391 211.502 244.652L214.335 249.835C214.904 250.877 215.501 251.512 216.125 251.741C216.579 251.92 217.028 251.96 217.471 251.859C217.888 251.774 218.247 251.649 218.548 251.484C218.838 251.362 218.997 251.328 219.027 251.383C219.387 252.041 219.492 252.429 219.343 252.546C218.009 253.56 216.949 254.389 216.161 255.033C215.361 255.72 214.9 256.114 214.778 256.216L214.068 256.872C213.973 256.959 213.845 256.887 213.682 256.655C213.52 256.423 213.423 256.245 213.39 256.12C212.835 254.714 212.363 253.655 211.973 252.942L208.938 247.389C207.784 245.278 206.614 243.887 205.429 243.218C204.258 242.575 202.96 242.644 201.534 243.423C200.986 243.723 200.534 244.166 200.178 244.752C199.794 245.354 199.55 245.95 199.446 246.541C199.329 247.175 199.353 247.643 199.518 247.944L203.723 255.636C204.292 256.678 204.889 257.313 205.513 257.542C205.967 257.721 206.416 257.761 206.86 257.66C207.276 257.575 207.643 257.464 207.959 257.326C208.248 257.204 208.401 257.156 208.416 257.184C208.775 257.842 208.88 258.23 208.731 258.347C207.397 259.361 206.412 260.131 205.774 260.658C205.108 261.2 204.586 261.645 204.208 261.995L203.456 262.673C203.362 262.76 203.233 262.688 203.071 262.456C202.908 262.224 202.811 262.046 202.778 261.921C202.223 260.515 201.766 259.483 201.406 258.825L196.91 250.599C196.235 249.365 195.569 248.376 194.913 247.63C194.681 247.401 194.364 247.343 193.962 247.455C193.576 247.595 193.135 247.765 192.639 247.965L192.081 248.217C191.984 248.234 191.861 248.106 191.711 247.832C191.666 247.749 191.632 247.59 191.609 247.353C191.574 247.158 191.598 247.039 191.68 246.994C192.473 246.489 193.295 245.844 194.147 245.057C195.015 244.298 195.642 243.688 196.031 243.226L196.356 242.942Z" fill="black"/>
<path d="M174.235 250.677C175.909 250.29 177.549 250.375 179.154 250.934C180.759 251.493 182.156 252.405 183.347 253.669C184.514 254.97 185.309 256.535 185.732 258.361C186.225 260.493 186.255 262.426 185.823 264.162C185.39 265.898 184.584 267.335 183.404 268.474C182.232 269.644 180.793 270.426 179.088 270.82C177.687 271.144 176.391 271.156 175.198 270.854C174.013 270.583 173.036 270.103 172.267 269.415C171.522 268.69 170.926 267.913 170.478 267.087C170.006 266.298 169.672 265.477 169.475 264.624C169.334 264.016 169.337 263.614 169.485 263.419C169.639 263.255 169.975 263.113 170.493 262.994L182.001 260.331C182.245 260.275 182.349 260.17 182.314 260.018C182.018 258.739 181.474 257.566 180.682 256.499C179.897 255.461 178.913 254.678 177.733 254.15C176.552 253.621 175.231 253.526 173.769 253.864C172.491 254.16 171.467 254.589 170.699 255.152C169.908 255.752 169.35 256.25 169.024 256.646L168.757 256.948C168.575 256.99 168.438 256.814 168.346 256.418C168.297 256.205 168.325 255.909 168.43 255.532C168.842 254.539 169.56 253.555 170.585 252.58C171.618 251.635 172.834 251.001 174.235 250.677ZM182.445 262.249L173.54 264.309C173.388 264.345 173.347 264.515 173.417 264.819C173.572 265.489 173.924 266.177 174.472 266.884C174.997 267.629 175.681 268.225 176.522 268.671C177.363 269.118 178.316 269.219 179.382 268.972C180.356 268.747 181.116 268.218 181.661 267.386C182.213 266.585 182.574 265.716 182.742 264.779C182.917 263.872 182.934 263.114 182.793 262.505C182.744 262.292 182.628 262.207 182.445 262.249Z" fill="black"/>
</svg>
